<?xml version="1.0" encoding="utf-8"?>
<!-- Generator: Adobe Illustrator 27.5.0, SVG Export Plug-In . SVG Version: 6.00 Build 0)  -->
<svg version="1.1" id="Capa_1" xmlns="http://www.w3.org/2000/svg" xmlns:xlink="http://www.w3.org/1999/xlink" x="0px" y="0px"
	 viewBox="0 0 125.2 67.3" style="enable-background:new 0 0 125.2 67.3;" xml:space="preserve">
<style type="text/css">
	.st0{fill:#E3F0F0;}
	.st1{fill:#5A0F38;}
</style>
<path class="st0" d="M116.9,67.3H8.2c-4.5,0-8.2-3.7-8.2-8.2V8.2C0,3.7,3.7,0,8.2,0h108.7c4.5,0,8.2,3.7,8.2,8.2v50.8
	C125.2,63.6,121.5,67.3,116.9,67.3z"/>
<path id="Trazado_12745_00000000903921107228960430000017038638240383994538_" class="st1" d="M86.5,44.8l-9.7-9.7
	c-1.8-1.7-1.8-4.6-0.1-6.3c1.7-1.8,4.6-1.8,6.3-0.1c0,0,0.1,0.1,0.1,0.1l6.6,6.6l12.9-12.9c1.8-1.7,4.6-1.7,6.3,0.1
	c1.7,1.7,1.7,4.5,0,6.2l-16,16C91,46.5,88.2,46.5,86.5,44.8"/>
</svg>
