<?xml version="1.0" encoding="utf-8"?>
<!-- Generator: Adobe Illustrator 27.5.0, SVG Export Plug-In . SVG Version: 6.00 Build 0)  -->
<svg version="1.1" id="Capa_1" xmlns="http://www.w3.org/2000/svg" xmlns:xlink="http://www.w3.org/1999/xlink" x="0px" y="0px"
	 viewBox="0 0 100 125" style="enable-background:new 0 0 100 125;" xml:space="preserve">
<style type="text/css">
	.st0{fill:none;}
	.st1{clip-path:url(#SVGID_00000103962694076723757080000006264555052515414408_);}
</style>
<g>
	<path d="M49.7,38.8c1.1,0,2.2,0,3.4,0c1.8,0,2.9-0.6,3.5-2.2c0.9-2.4,0.7-4.8,0.3-7.2c-0.6-3.5-0.6-7,0.2-10.5
		c0.4-2,1.2-3.9,2.9-5.3c3.8-3.1,9.5-1.8,11.5,2.6C73.2,20,73.3,24,72.7,28c-0.4,2.5-1,5-1.5,7.5c-0.6,3.5-0.1,6.9,0.6,10.3
		c1.4,6.4,1.2,12.6-2.1,18.5c-0.9,1.7-2.4,3.1-3.5,4.6c-0.3,0.4-0.5,1-0.4,1.3c1.6,3.3,0.6,6.2-1.4,9c-0.2,0.3-0.5,0.8-0.5,1.1
		c0.4,3.2-1.5,5.4-4,7.4c-4.4,3.4-9.5,3.6-14.6,2c-4.1-1.3-8-3.2-11.8-5c-2.4-1.1-3.6-3.3-3.8-5.6c-0.5-4-0.8-7.9-1.9-11.8
		c-0.2-0.8-0.1-1.6-0.1-2.4c0.1-1.9,0-3.8-0.5-5.7c-0.9-3.2,0.7-5.8,3.4-7.8c0.9-0.7,1.4-1.3,1.2-2.5c-0.1-1.3,0.1-2.6,0.6-3.7
		c1.1-2.4,4.5-4.1,6.3-4.9c4-1.7,7.8-1.7,10.1-1.5C49.1,38.8,49.4,38.8,49.7,38.8z M37.5,43.6c-2.3,1-3.5,3.8-2.9,5.9
		c0.6,2,0.6,2-1.3,3.1c-3.2,2-4.3,4.4-3.1,7.1c0.4,0.9,1.2,1.7,2,2.4c0.6,0.6,1.4,1,0.9,1.9c-0.5,0.9-1.3,0.8-2.2,0.4
		c-0.1,0-0.2,0-0.4,0c0,1-0.3,2.1,0.1,3c1.5,3.6,1.3,7.4,1.8,11.1c0.2,1.5,1,3,2.5,3.9c4,2.2,8.1,4.2,12.6,5.2c4.6,1,8.8,0.3,12-3.1
		c0.7-0.7,1.2-1.7,1.8-2.7c-0.6,0-0.7-0.1-0.7,0c-7.3,1.7-13.9-0.5-20.3-3.2c-0.4-0.2-0.5-1-0.8-1.5c0.6-0.2,1.2-0.6,1.8-0.6
		c0.4,0,0.9,0.3,1.3,0.4c2.4,0.8,4.7,1.6,7.2,2.2c3.2,0.8,6.5,1.2,9.8,0.3c3.3-0.9,5.2-5.2,3.6-8.1C62,71.6,61,72,60,72.2
		c-7.8,1.4-14.5-1.4-21-4.8c-0.4-0.2-0.7-1.2-0.5-1.5c0.3-0.4,1.2-0.6,1.7-0.6c0.7,0.1,1.2,0.6,1.9,0.8c4.7,2.2,9.4,4.1,14.8,3.8
		c5.5-0.3,6.3-1.4,7.5-5.7c0.7-2.8-0.7-4.1-3.8-3.9c-2.1,0.1-4.3,0.2-6.2-0.3c-4.1-1.1-8.2-2.5-12.2-3.8c-0.9-0.3-1.7-0.8-1.2-1.8
		c0.4-0.9,1.3-0.8,2.2-0.5c1.8,0.6,3.6,1.3,5.4,1.9c2.9,0.8,5.9,1.7,8.9,2.3c2.8,0.5,5.4-0.9,6.1-2.9c1-2.6,0.1-4.7-2.6-6.3
		c-0.4-0.2-0.9-0.4-1-0.7c-0.2-0.5-0.5-1.2-0.3-1.6c0.2-0.3,1.1-0.6,1.5-0.4c3.2,1.2,5.8,4.1,5.3,7.6c-0.2,1.6-1,3.1-1.4,4.4
		c0.8,1.3,1.7,2.6,2.6,4c0.2-0.4,0.4-0.8,0.6-1.3c2-5,2-10.1,0.8-15.2c-1.1-4.7-1-9.2,0-13.9c0.6-2.7,0.9-5.4,1.1-8.1
		c0.2-2.6-0.1-5.3-1.7-7.5c-1.8-2.5-5.5-2.6-7.3-0.2c-0.7,0.9-1.1,2-1.4,3c-0.8,3.1-0.7,6.3-0.2,9.5c0.4,2.8,0.7,5.6-0.3,8.4
		c-1,3-3.1,4.2-6.5,4.2c-3,0-6,0-9,0.4"/>
</g>
<line class="st0" x1="9.5" y1="0" x2="11.3" y2="0"/>
<g>
	<defs>
		
			<rect id="SVGID_1_" x="59" y="15.7" transform="matrix(0.7931 -0.6091 0.6091 0.7931 0.3085 43.9627)" width="11.6" height="11.6"/>
	</defs>
	<clipPath id="SVGID_00000181048699046157336460000009707524457827518396_">
		<use xlink:href="#SVGID_1_"  style="overflow:visible;"/>
	</clipPath>
	<g style="clip-path:url(#SVGID_00000181048699046157336460000009707524457827518396_);">
		<path d="M60.8,20.7c0,0.1-0.1,0.2-0.2,0.3C60.5,21,60.4,21,60.3,21c-0.1,0-0.2-0.1-0.3-0.2c-0.1-0.1-0.1-0.2-0.1-0.3l0.2-0.8l0,0
			c0.1-0.5,0.3-1.1,0.6-1.5c0.3-0.5,0.7-0.9,1.1-1.2c0.5-0.4,1-0.6,1.6-0.8c0.6-0.2,1.2-0.2,1.8-0.1c0,0,0,0,0,0l0.1,0l0,0
			c1.3,0.2,2.5,0.8,3.3,1.9s1.1,2.3,1,3.6l0,0L69.3,23l0,0c-0.1,0.5-0.3,1-0.7,1.3c-0.4,0.3-0.9,0.5-1.4,0.4c-0.5-0.1-1-0.3-1.3-0.7
			c-0.3-0.4-0.5-0.9-0.4-1.4l0,0l0.2-1.5c0-0.3,0-0.5-0.2-0.8c-0.2-0.2-0.4-0.4-0.7-0.4l0,0c-0.3,0-0.5,0-0.8,0.2
			c-0.2,0.2-0.4,0.4-0.4,0.7l-0.2,1.6c-0.1,1,0.1,2.1,0.8,2.9c0.2,0.3,0.5,0.6,0.9,0.8c0.1,0.1,0.2,0.2,0.2,0.3c0,0.1,0,0.2-0.1,0.3
			c-0.1,0.1-0.2,0.2-0.3,0.2c-0.1,0-0.2,0-0.3-0.1c-0.4-0.3-0.8-0.6-1.1-1c-0.8-1-1.1-2.3-1-3.5l0,0l0.2-1.6l0,0
			c0.1-0.5,0.3-1,0.7-1.3c0.4-0.3,0.9-0.5,1.4-0.4l0,0l0,0l0,0c0.5,0.1,1,0.3,1.3,0.7c0.3,0.4,0.5,0.9,0.4,1.4l0,0l-0.2,1.5
			c0,0.3,0,0.5,0.2,0.8c0.2,0.2,0.4,0.4,0.7,0.4c0.3,0,0.5,0,0.8-0.2c0.2-0.2,0.4-0.4,0.4-0.7l0.2-1.5c0.1-1.1-0.1-2.1-0.8-3
			c-0.6-0.8-1.6-1.4-2.7-1.5l-0.1,0c-0.5-0.1-1,0-1.5,0.1c-0.5,0.1-0.9,0.4-1.3,0.7c-0.3,0.3-0.6,0.6-0.9,1
			c-0.2,0.4-0.4,0.8-0.5,1.2L60.8,20.7z"/>
		<path d="M62.7,25.6c0.1,0.1,0.1,0.2,0,0.3c0,0.1-0.1,0.2-0.2,0.3c-0.1,0.1-0.2,0.1-0.3,0c-0.1,0-0.2-0.1-0.3-0.2
			c-0.3-0.6-0.6-1.3-0.7-1.9c-0.1-0.7-0.2-1.5-0.1-2.2l0.2-1.5c0,0,0,0,0,0c0.1-0.9,0.6-1.7,1.3-2.2c0.7-0.5,1.6-0.8,2.5-0.7
			c0.9,0.1,1.7,0.6,2.3,1.3c0.6,0.7,0.8,1.6,0.7,2.5l-0.2,1.5c0,0.1-0.1,0.2-0.2,0.3c-0.1,0.1-0.2,0.1-0.3,0.1
			c-0.1,0-0.2-0.1-0.3-0.2C67,23,66.9,22.8,67,22.7l0.2-1.5l0,0c0.1-0.7-0.1-1.3-0.5-1.9s-1-0.9-1.7-1c-0.7-0.1-1.3,0.1-1.8,0.5
			c-0.5,0.4-0.9,1-0.9,1.6L62,22l0,0c-0.1,0.6-0.1,1.3,0,1.9C62.2,24.5,62.4,25,62.7,25.6z"/>
		<path d="M67.5,25.3c0.1,0,0.2,0,0.3,0.1c0.1,0.1,0.2,0.2,0.2,0.3c0,0.1,0,0.2-0.1,0.3c-0.1,0.1-0.2,0.2-0.3,0.2
			c-0.2,0-0.5,0-0.7,0c-0.9-0.1-1.7-0.6-2.2-1.3c-0.6-0.7-0.8-1.7-0.7-2.6l0.2-1.5c0-0.1,0.1-0.2,0.2-0.3c0.1-0.1,0.2-0.1,0.3-0.1
			c0.1,0,0.2,0.1,0.3,0.2c0.1,0.1,0.1,0.2,0.1,0.3l-0.2,1.5c0,0,0,0,0,0c-0.1,0.7,0.1,1.4,0.5,1.9c0.4,0.5,1,0.8,1.6,0.9
			C67.2,25.3,67.4,25.3,67.5,25.3z"/>
	</g>
</g>
</svg>
