<?xml version="1.0" encoding="utf-8"?>
<!-- Generator: Adobe Illustrator 27.5.0, SVG Export Plug-In . SVG Version: 6.00 Build 0)  -->
<svg version="1.1" id="Capa_1" xmlns="http://www.w3.org/2000/svg" xmlns:xlink="http://www.w3.org/1999/xlink" x="0px" y="0px"
	 viewBox="0 0 276.7 276.7" style="enable-background:new 0 0 276.7 276.7;" xml:space="preserve">
<style type="text/css">
	.st0{fill:#D3097F;}
	.st1{fill:#98145E;}
	.st2{fill:#FFFFFF;}
	.st3{fill:none;}
	.st4{fill:#5A0F38;}
	.st5{fill:#D60B8C;}
</style>
<rect id="Rectángulo_23432" x="28.3" y="106" class="st0" width="220" height="135.9"/>
<polygon class="st1" points="248.3,106 28.3,106 40.4,84.5 236.3,84.5 "/>
<rect id="Rectángulo_23433" x="57" y="134.6" class="st2" width="162.8" height="78.7"/>
<rect x="28.3" y="21.9" class="st3" width="220" height="220"/>
<path class="st4" d="M212.8,84.5c0,2.4-2,4.4-4.4,4.5H72.8c-2.5,0-4.4-2-4.4-4.5H212.8z"/>
<path id="Trazado_12746" d="M196,164.7V161h-26.8v20.2H196v-3.7h-19v-4.5h19v-3.7h-19v-4.5L196,164.7z"/>
<rect id="Rectángulo_23434" x="122.6" y="161" width="7.8" height="20.2"/>
<path id="Trazado_12747" d="M157.7,161v12L142,161h-7.8v20.2h7.8v-12l15.7,12h7.8V161H157.7z"/>
<path id="Trazado_12748" d="M86.8,175.1h26.6l1.7,0.7H85.2L86.8,175.1z M113.5,174.7H86.8l-5.3,1.7h37.3L113.5,174.7z"/>
<path id="Trazado_12749" class="st5" d="M93,175.7h13.3c2.6-2.2,5.2-4.2,8-6.1c-5.4-3.3-9.9-7.8-13.1-13.2
	c-5.4,3.4-10,7.9-13.5,13.2C89.2,171.9,91,173.9,93,175.7"/>
<path id="Trazado_12750" class="st5" d="M94.2,176.8c1.9,1.6,4,3.1,6.3,4.4c1.5-1.5,3-2.9,4.6-4.4H94.2z"/>
<rect id="Rectángulo_23435" x="81.5" y="185.7" width="1.7" height="5.5"/>
<path id="Trazado_12751" d="M84.3,187.3h1.4v0.6c0.2-0.2,0.4-0.4,0.6-0.6c0.3-0.1,0.5-0.2,0.8-0.2c0.4,0,0.7,0.1,1,0.4
	c0.3,0.3,0.4,0.7,0.4,1.1v2.5H87V189c0-0.2,0-0.4-0.2-0.5c-0.1-0.1-0.2-0.2-0.4-0.2c-0.2,0-0.4,0.1-0.5,0.2
	c-0.1,0.2-0.2,0.5-0.2,0.7v1.9h-1.5V187.3z"/>
<path id="Trazado_12752" d="M89.2,190.1l1.5-0.1c0.1,0.2,0.2,0.3,0.3,0.4c0.1,0,0.3,0.1,0.4,0.1c0.2,0,0.3,0,0.5-0.1
	c0.1,0,0.2-0.1,0.2-0.2c0-0.1-0.1-0.2-0.2-0.2c-0.2-0.1-0.4-0.2-0.6-0.2c-0.4-0.1-0.7-0.2-1.1-0.3c-0.2-0.1-0.4-0.2-0.5-0.4
	c-0.2-0.2-0.2-0.4-0.2-0.6c0-0.2,0.1-0.5,0.2-0.7c0.2-0.2,0.4-0.4,0.6-0.4c0.3-0.1,0.7-0.2,1.1-0.2c0.4,0,0.7,0,1.1,0.1
	c0.2,0.1,0.4,0.2,0.6,0.4c0.2,0.2,0.3,0.4,0.4,0.6l-1.5,0.2c0-0.1-0.1-0.2-0.2-0.3c-0.1-0.1-0.3-0.1-0.4-0.1c-0.2,0-0.3,0-0.4,0.1
	c-0.1,0.1-0.1,0.1-0.1,0.2c0,0.1,0.1,0.2,0.2,0.2c0.2,0.1,0.4,0.2,0.6,0.2c0.4,0,0.8,0.1,1.1,0.2c0.2,0.1,0.4,0.2,0.6,0.4
	c0.1,0.2,0.2,0.4,0.2,0.6c0,0.2-0.1,0.5-0.2,0.7c-0.2,0.2-0.4,0.4-0.7,0.5c-0.4,0.1-0.8,0.2-1.2,0.2c-0.5,0-1.1-0.1-1.5-0.3
	C89.4,190.8,89.2,190.5,89.2,190.1"/>
<path id="Trazado_12753" d="M95.9,185.7v1.5h0.8v1.1h-0.8v1.4c0,0.2,0,0.3,0,0.3c0.1,0.1,0.2,0.1,0.3,0.1c0.2,0,0.3,0,0.5-0.1
	l0.1,1.1c-0.3,0.1-0.7,0.1-1.1,0.1c-0.3,0-0.6,0-0.8-0.2c-0.2-0.1-0.3-0.2-0.4-0.4c-0.1-0.3-0.2-0.6-0.2-1v-1.4h-0.6v-1.1h0.6v-0.7
	L95.9,185.7z"/>
<path id="Trazado_12754" d="M97.5,187.3h1.5v3.9h-1.5V187.3z M97.5,185.7h1.5v1.1h-1.5V185.7z"/>
<path id="Trazado_12755" d="M101.9,185.7v1.5h0.8v1.1h-0.8v1.4c0,0.2,0,0.3,0,0.3c0.1,0.1,0.2,0.1,0.3,0.1c0.2,0,0.3,0,0.5-0.1
	l0.1,1.1c-0.3,0.1-0.7,0.1-1.1,0.1c-0.3,0-0.6,0-0.8-0.2c-0.2-0.1-0.3-0.2-0.4-0.4c-0.1-0.3-0.2-0.6-0.2-1v-1.4h-0.5v-1.1h0.6v-0.7
	L101.9,185.7z"/>
<path id="Trazado_12756" d="M107.6,191.2h-1.4v-0.6c-0.2,0.2-0.4,0.4-0.6,0.6c-0.3,0.1-0.5,0.2-0.8,0.2c-0.4,0-0.7-0.1-1-0.4
	c-0.3-0.3-0.4-0.7-0.4-1.1v-2.5h1.5v2.2c0,0.2,0,0.4,0.2,0.5c0.1,0.1,0.2,0.2,0.4,0.2c0.2,0,0.3-0.1,0.4-0.2
	c0.1-0.2,0.2-0.5,0.2-0.7v-1.9h1.5L107.6,191.2z"/>
<path id="Trazado_12757" d="M110.4,185.7v1.5h0.8v1.1h-0.8v1.4c0,0.2,0,0.3,0,0.3c0.1,0.1,0.2,0.1,0.3,0.1c0.2,0,0.3,0,0.5-0.1
	l0.1,1.1c-0.3,0.1-0.7,0.1-1.1,0.1c-0.3,0-0.6,0-0.8-0.2c-0.2-0.1-0.3-0.3-0.4-0.4c-0.1-0.3-0.1-0.7-0.1-1v-1.4h-0.6v-1.1h0.6v-0.7
	L110.4,185.7z"/>
<path id="Trazado_12758" d="M113.3,189.2c0,0.3,0,0.6,0.2,0.8c0.1,0.2,0.3,0.3,0.6,0.3c0.2,0,0.4-0.1,0.5-0.3
	c0.2-0.2,0.3-0.5,0.2-0.8c0-0.3-0.1-0.6-0.2-0.8c-0.1-0.2-0.3-0.2-0.5-0.2c-0.2,0-0.4,0.1-0.6,0.2
	C113.3,188.7,113.2,188.9,113.3,189.2 M111.7,189.2c0-0.6,0.2-1.1,0.6-1.5c0.5-0.4,1-0.6,1.7-0.6c0.7-0.1,1.3,0.2,1.8,0.7
	c0.3,0.4,0.5,0.9,0.5,1.4c0,0.6-0.2,1.1-0.6,1.5c-0.9,0.8-2.3,0.8-3.2,0.1C112,190.4,111.7,189.8,111.7,189.2"/>
<path id="Trazado_12759" d="M119.7,185.7h1.6l2,3v-3h1.6v5.5h-1.6l-2-3v3h-1.6V185.7z"/>
<path id="Trazado_12760" d="M128.6,189.3c-0.2,0-0.5,0.1-0.7,0.2c-0.2,0-0.4,0.1-0.6,0.2c-0.2,0.1-0.2,0.4,0,0.5c0,0,0,0,0,0
	c0.1,0.1,0.2,0.1,0.4,0.1c0.2,0,0.3,0,0.5-0.1c0.1-0.1,0.3-0.2,0.3-0.3c0.1-0.1,0.1-0.3,0.1-0.4L128.6,189.3z M127.3,188.5l-1.5-0.2
	c0.1-0.2,0.1-0.4,0.2-0.6c0.1-0.2,0.3-0.3,0.5-0.4c0.2-0.1,0.4-0.1,0.6-0.2c0.3,0,0.5-0.1,0.8-0.1c0.4,0,0.7,0,1.1,0.1
	c0.3,0.1,0.5,0.2,0.7,0.3c0.1,0.1,0.2,0.3,0.3,0.5c0,0.2,0.1,0.4,0.1,0.6v1.8c0,0.2,0,0.3,0,0.4c0,0.1,0.1,0.3,0.2,0.4h-1.4
	c-0.1-0.1-0.1-0.2-0.1-0.2c0-0.1,0-0.2,0-0.2c-0.2,0.2-0.4,0.3-0.6,0.4c-0.3,0.1-0.6,0.2-0.9,0.2c-0.4,0-0.8-0.1-1.1-0.4
	c-0.3-0.2-0.4-0.5-0.4-0.8c0-0.3,0.1-0.5,0.3-0.7c0.3-0.3,0.6-0.4,1-0.4c0.5-0.1,0.9-0.2,1.1-0.2c0.2-0.1,0.4-0.1,0.6-0.2
	c0-0.1,0-0.3-0.1-0.4c-0.1-0.1-0.3-0.1-0.4-0.1c-0.2,0-0.4,0-0.6,0.1C127.4,188.3,127.4,188.4,127.3,188.5"/>
<path id="Trazado_12761" d="M134,189.7l1.4,0.2c-0.1,0.3-0.2,0.6-0.4,0.8c-0.2,0.2-0.4,0.4-0.7,0.5c-0.4,0.1-0.7,0.2-1.1,0.2
	c-0.3,0-0.7,0-1-0.1c-0.3-0.1-0.5-0.2-0.7-0.4c-0.2-0.2-0.4-0.4-0.5-0.6c-0.1-0.3-0.2-0.6-0.2-0.9c0-0.3,0.1-0.7,0.2-1
	c0.1-0.2,0.2-0.4,0.4-0.6c0.2-0.2,0.3-0.3,0.5-0.4c0.4-0.1,0.8-0.2,1.1-0.2c0.5,0,1,0.1,1.5,0.4c0.4,0.2,0.6,0.6,0.7,1l-1.4,0.2
	c0-0.2-0.1-0.3-0.2-0.4c-0.1-0.1-0.3-0.1-0.5-0.1c-0.2,0-0.5,0.1-0.6,0.3c-0.2,0.2-0.3,0.5-0.2,0.8c0,0.3,0.1,0.5,0.2,0.7
	c0.1,0.2,0.4,0.3,0.6,0.3c0.2,0,0.4-0.1,0.5-0.2C133.8,190,133.9,189.8,134,189.7"/>
<path id="Trazado_12762" d="M136.2,187.3h1.5v3.9h-1.5V187.3z M136.2,185.7h1.5v1.1h-1.5V185.7z"/>
<path id="Trazado_12763" d="M140,189.2c0,0.3,0.1,0.6,0.2,0.8c0.2,0.3,0.7,0.4,1,0.1c0.1,0,0.1-0.1,0.1-0.1c0.1-0.2,0.2-0.5,0.2-0.8
	c0-0.3-0.1-0.5-0.2-0.8c-0.1-0.2-0.3-0.2-0.6-0.2c-0.2,0-0.4,0.1-0.6,0.2C140.1,188.7,140,188.9,140,189.2 M138.5,189.2
	c0-0.6,0.2-1.1,0.6-1.5c0.4-0.4,1-0.6,1.7-0.6c0.7,0,1.3,0.2,1.8,0.7c0.4,0.4,0.5,0.9,0.5,1.4c0,0.6-0.2,1.1-0.6,1.5
	c-0.4,0.4-1,0.6-1.7,0.6c-0.6,0-1.1-0.2-1.6-0.5C138.7,190.4,138.4,189.8,138.5,189.2"/>
<path id="Trazado_12764" d="M143.7,187.3h1.4v0.6c0.2-0.2,0.4-0.4,0.7-0.6c0.2-0.1,0.5-0.2,0.8-0.2c0.4,0,0.7,0.1,1,0.4
	c0.3,0.3,0.4,0.7,0.4,1.1v2.5h-1.5V189c0-0.2,0-0.4-0.1-0.5c-0.1-0.1-0.2-0.2-0.4-0.2c-0.2,0-0.4,0.1-0.5,0.2
	c-0.1,0.2-0.2,0.5-0.2,0.7v1.9h-1.5V187.3z"/>
<path id="Trazado_12765" d="M151.6,189.3c-0.2,0.1-0.4,0.1-0.7,0.2c-0.2,0-0.4,0.1-0.6,0.2c-0.2,0.1-0.2,0.4,0,0.5c0,0,0,0,0,0
	c0.1,0.1,0.3,0.1,0.4,0.1c0.2,0,0.3,0,0.5-0.1c0.1-0.1,0.2-0.2,0.3-0.3c0.1-0.1,0.1-0.3,0.1-0.4L151.6,189.3z M150.2,188.5l-1.5-0.2
	c0.1-0.2,0.1-0.4,0.2-0.6c0.1-0.2,0.3-0.3,0.5-0.4c0.2-0.1,0.4-0.1,0.6-0.2c0.3,0,0.5-0.1,0.8-0.1c0.4,0,0.7,0,1.1,0.1
	c0.3,0.1,0.5,0.2,0.7,0.3c0.1,0.1,0.2,0.3,0.3,0.5c0.1,0.2,0.1,0.4,0.1,0.6v2.2c0,0.1,0.1,0.3,0.2,0.4h-1.4l-0.1-0.2
	c0-0.1,0-0.2,0-0.2c-0.2,0.2-0.4,0.3-0.6,0.4c-0.3,0.1-0.6,0.2-0.9,0.2c-0.4,0-0.8-0.1-1.1-0.4c-0.3-0.2-0.4-0.5-0.4-0.8
	c0-0.3,0.1-0.5,0.3-0.7c0.3-0.2,0.6-0.4,1-0.4c0.6-0.1,0.9-0.2,1.1-0.2c0.2-0.1,0.4-0.1,0.6-0.2c0-0.1,0-0.3-0.1-0.4
	c-0.1-0.1-0.3-0.1-0.4-0.1c-0.2,0-0.4,0-0.6,0.1C150.4,188.3,150.3,188.4,150.2,188.5"/>
<rect id="Rectángulo_23436" x="154" y="185.7" width="1.5" height="5.5"/>
<path id="Trazado_12766" d="M159.2,185.7h4.5v1.2h-2.8v0.9h2.6v1.1h-2.6v1.1h2.9v1.2h-4.6L159.2,185.7z"/>
<rect id="Rectángulo_23437" x="164.6" y="185.7" width="1.5" height="5.5"/>
<path id="Trazado_12767" d="M170,188.9c0-0.2-0.1-0.4-0.2-0.6c-0.3-0.3-0.8-0.3-1,0c0,0,0,0.1-0.1,0.1c-0.1,0.1-0.2,0.3-0.2,0.5
	L170,188.9z M171.5,189.6h-3c0,0.2,0.1,0.4,0.2,0.5c0.1,0.2,0.3,0.3,0.6,0.3c0.2,0,0.3,0,0.4-0.1c0.1-0.1,0.2-0.1,0.3-0.2l1.5,0.1
	c-0.2,0.4-0.5,0.7-0.8,0.9c-0.4,0.2-0.9,0.3-1.4,0.3c-0.4,0-0.9-0.1-1.3-0.2c-0.3-0.2-0.6-0.4-0.7-0.7c-0.2-0.3-0.3-0.7-0.3-1.1
	c0-0.6,0.2-1.1,0.6-1.5c0.4-0.4,1-0.6,1.6-0.6c0.5,0,0.9,0.1,1.4,0.3c0.3,0.2,0.6,0.4,0.7,0.7c0.2,0.4,0.3,0.8,0.2,1.3L171.5,189.6z
	"/>
<path id="Trazado_12768" d="M175.2,189.7l1.5,0.2c-0.1,0.3-0.2,0.5-0.4,0.8c-0.2,0.2-0.4,0.4-0.7,0.5c-0.3,0.1-0.7,0.2-1.1,0.2
	c-0.4,0-0.7,0-1.1-0.1c-0.3-0.1-0.5-0.2-0.7-0.4c-0.2-0.2-0.4-0.4-0.5-0.6c-0.1-0.3-0.2-0.6-0.2-0.9c0-0.3,0.1-0.7,0.2-1
	c0.1-0.2,0.2-0.4,0.4-0.6c0.2-0.1,0.4-0.3,0.6-0.4c0.4-0.1,0.8-0.2,1.1-0.2c0.5,0,1,0.1,1.5,0.4c0.3,0.3,0.6,0.6,0.7,1l-1.5,0.2
	c0-0.2-0.1-0.3-0.2-0.4c-0.1-0.1-0.3-0.1-0.5-0.1c-0.2,0-0.4,0.1-0.6,0.3c-0.2,0.2-0.3,0.5-0.2,0.8c0,0.3,0.1,0.5,0.2,0.7
	c0.1,0.2,0.4,0.3,0.6,0.3c0.2,0,0.3-0.1,0.5-0.2C175,190,175.1,189.8,175.2,189.7"/>
<path id="Trazado_12769" d="M179.1,185.7v1.5h0.8v1.1h-0.8v1.4c0,0.1,0,0.2,0,0.3c0.1,0.1,0.2,0.1,0.3,0.1c0.2,0,0.3,0,0.5-0.1
	l0.1,1.1c-0.3,0.1-0.7,0.1-1.1,0.1c-0.3,0-0.6,0-0.8-0.2c-0.2-0.1-0.3-0.2-0.4-0.4c-0.1-0.3-0.2-0.6-0.2-1v-1.4H177v-1.1h0.6v-0.7
	L179.1,185.7z"/>
<path id="Trazado_12770" d="M182,189.2c0,0.3,0.1,0.6,0.2,0.8c0.2,0.3,0.7,0.4,1,0.1c0.1,0,0.1-0.1,0.1-0.1c0.1-0.2,0.2-0.5,0.2-0.8
	c0-0.3-0.1-0.5-0.2-0.8c-0.1-0.2-0.3-0.2-0.6-0.2c-0.2,0-0.4,0.1-0.6,0.2C182.1,188.7,182,188.9,182,189.2 M180.5,189.2
	c0-0.6,0.2-1.1,0.6-1.5c0.4-0.4,1-0.6,1.7-0.6c0.7,0,1.3,0.2,1.8,0.7c0.4,0.4,0.5,0.9,0.5,1.4c0,0.6-0.2,1.1-0.6,1.5
	c-0.4,0.4-1,0.6-1.7,0.6c-0.6,0-1.1-0.2-1.6-0.5C180.7,190.4,180.5,189.8,180.5,189.2"/>
<path id="Trazado_12771" d="M185.8,187.3h1.4v0.6c0.1-0.2,0.2-0.4,0.4-0.6c0.2-0.1,0.3-0.2,0.5-0.2c0.3,0,0.5,0.1,0.7,0.2l-0.5,1.1
	c-0.1-0.1-0.3-0.1-0.4-0.1c-0.2,0-0.4,0.1-0.4,0.3c-0.2,0.4-0.3,0.9-0.2,1.3v1.3h-1.5L185.8,187.3z"/>
<path id="Trazado_12772" d="M192,189.3c-0.2,0-0.5,0.1-0.7,0.2c-0.2,0-0.4,0.1-0.6,0.2c-0.2,0.1-0.2,0.4,0,0.5c0,0,0,0,0,0
	c0.1,0.1,0.2,0.1,0.4,0.1c0.2,0,0.4,0,0.5-0.1c0.1-0.1,0.2-0.2,0.3-0.3c0.1-0.1,0.1-0.3,0.1-0.4L192,189.3z M190.7,188.5l-1.5-0.2
	c0.1-0.2,0.1-0.4,0.2-0.6c0.1-0.2,0.3-0.3,0.5-0.4c0.2-0.1,0.4-0.1,0.6-0.2c0.3,0,0.5-0.1,0.8-0.1c0.4,0,0.7,0,1.1,0.1
	c0.3,0.1,0.5,0.2,0.7,0.3c0.1,0.1,0.2,0.3,0.3,0.5c0.1,0.2,0.1,0.4,0.1,0.6v1.8c0,0.2,0,0.3,0,0.4c0,0.1,0.1,0.3,0.2,0.4h-1.4
	c0-0.1-0.1-0.2-0.1-0.2c0-0.1,0-0.2,0-0.2c-0.2,0.2-0.4,0.3-0.6,0.4c-0.3,0.1-0.6,0.2-0.9,0.2c-0.4,0-0.8-0.1-1.1-0.4
	c-0.3-0.2-0.4-0.5-0.4-0.8c0-0.3,0.1-0.5,0.3-0.7c0.3-0.2,0.6-0.4,1-0.4c0.5-0.1,0.9-0.2,1.1-0.2c0.2-0.1,0.4-0.1,0.6-0.2
	c0-0.1,0-0.3-0.1-0.4c-0.1-0.1-0.3-0.1-0.4-0.1c-0.2,0-0.4,0-0.6,0.1C190.8,188.3,190.8,188.4,190.7,188.5"/>
<rect id="Rectángulo_23438" x="194.5" y="185.7" width="1.5" height="5.5"/>
</svg>
