<?xml version="1.0" encoding="utf-8"?>
<!-- Generator: Adobe Illustrator 27.5.0, SVG Export Plug-In . SVG Version: 6.00 Build 0)  -->
<svg version="1.1" id="Capa_1" xmlns="http://www.w3.org/2000/svg" xmlns:xlink="http://www.w3.org/1999/xlink" x="0px" y="0px"
	 viewBox="0 0 276.7 276.7" style="enable-background:new 0 0 276.7 276.7;" xml:space="preserve">
<style type="text/css">
	.st0{fill:#D3097F;}
	.st1{fill:#98145E;}
	.st2{fill:#FFFFFF;}
	.st3{clip-path:url(#SVGID_00000128484558955726946250000012191009181791980978_);}
	.st4{fill:#5A0F38;}
	.st5{fill:#CCCBCB;}
	.st6{fill:#D60B8C;}
</style>
<g id="Grupo_42029" transform="translate(-810.667 -3422.095)">
	<g id="Grupo_42028" transform="translate(839 3444.001)">
		<rect id="Rectángulo_23432" x="0" y="84.1" class="st0" width="220" height="135.9"/>
		<path id="Trazado_12742" class="st1" d="M24.1,41.1L0,84.1h220l-24.1-42.9H24.1z"/>
		<rect id="Rectángulo_23433" x="28.6" y="112.7" class="st2" width="162.8" height="78.7"/>
		<g id="Grupo_42027" transform="translate(0 -0.001)">
			<g>
				<defs>
					<rect id="SVGID_1_" x="0" y="0" width="220" height="220"/>
				</defs>
				<clipPath id="SVGID_00000000187193616713915590000018424554252540797115_">
					<use xlink:href="#SVGID_1_"  style="overflow:visible;"/>
				</clipPath>
				
					<g id="Grupo_42026" transform="translate(0 0)" style="clip-path:url(#SVGID_00000000187193616713915590000018424554252540797115_);">
					<path id="Trazado_12743" class="st4" d="M180,67.1H44.5c-2.5,0-4.4-2.1-4.4-4.5c0-2.4,2-4.4,4.4-4.4H180c2.5,0,4.5,1.9,4.5,4.4
						s-1.9,4.5-4.4,4.5C180,67.1,180,67.1,180,67.1"/>
					<path id="Trazado_12744" class="st5" d="M152.8,62.6L165,50.4c3.5-3.5,3.5-9.2,0-12.6c0,0,0,0,0,0L129.9,2.6
						c-3.5-3.5-9.2-3.5-12.6,0L57.6,62.3c-0.1,0.1-0.2,0.2-0.3,0.3L152.8,62.6z"/>
					<path id="Trazado_12745" class="st4" d="M122.5,51.4h-13.8c-2.5,0-4.5-1.9-4.5-4.4c0-2.5,1.9-4.5,4.4-4.5c0,0,0.1,0,0.1,0h9.3
						V24.3c0-2.5,2.1-4.4,4.5-4.4c2.4,0,4.4,2,4.4,4.4v22.7C127,49.4,125,51.4,122.5,51.4"/>
					<path id="Trazado_12746" d="M167.7,142.8v-3.7h-26.8v20.2h26.8v-3.7h-19V151h19v-3.7h-19v-4.5L167.7,142.8z"/>
					<rect id="Rectángulo_23434" x="94.3" y="139.1" width="7.8" height="20.2"/>
					<path id="Trazado_12747" d="M129.3,139.1v12l-15.7-12h-7.8v20.2h7.8v-12l15.7,12h7.8v-20.2H129.3z"/>
					<path id="Trazado_12748" d="M58.5,153.2h26.6l1.7,0.7H56.9L58.5,153.2z M85.1,152.8H58.5l-5.3,1.7h37.3L85.1,152.8z"/>
					<path id="Trazado_12749" class="st6" d="M64.6,153.8h13.3c2.6-2.2,5.2-4.2,8-6.1c-5.4-3.3-9.9-7.8-13.1-13.2
						c-5.4,3.4-10,7.9-13.5,13.2C60.9,150,62.7,152,64.6,153.8"/>
					<path id="Trazado_12750" class="st6" d="M65.9,154.9c1.9,1.6,4,3.1,6.3,4.4c1.5-1.5,3-2.9,4.6-4.4H65.9z"/>
					<rect id="Rectángulo_23435" x="53.2" y="163.8" width="1.7" height="5.5"/>
					<path id="Trazado_12751" d="M56,165.3h1.4v0.6c0.2-0.2,0.4-0.4,0.6-0.6c0.3-0.1,0.5-0.2,0.8-0.2c0.4,0,0.7,0.1,1,0.4
						c0.3,0.3,0.4,0.7,0.4,1.1v2.5h-1.5v-2.2c0-0.2,0-0.4-0.2-0.5c-0.1-0.1-0.2-0.2-0.4-0.2c-0.2,0-0.4,0.1-0.5,0.2
						c-0.1,0.2-0.2,0.5-0.2,0.7v1.9H56V165.3z"/>
					<path id="Trazado_12752" d="M60.8,168.2l1.5-0.1c0.1,0.2,0.2,0.3,0.3,0.4c0.1,0,0.3,0.1,0.4,0.1c0.2,0,0.3,0,0.5-0.1
						c0.1,0,0.2-0.1,0.2-0.2c0-0.1-0.1-0.2-0.2-0.2c-0.2-0.1-0.4-0.2-0.6-0.2c-0.4-0.1-0.7-0.2-1.1-0.3c-0.2-0.1-0.4-0.2-0.5-0.4
						c-0.2-0.2-0.2-0.4-0.2-0.6c0-0.2,0.1-0.5,0.2-0.7c0.2-0.2,0.4-0.4,0.6-0.4c0.3-0.1,0.7-0.2,1.1-0.2c0.4,0,0.7,0,1.1,0.1
						c0.2,0.1,0.4,0.2,0.6,0.4c0.2,0.2,0.3,0.4,0.4,0.6l-1.5,0.2c0-0.1-0.1-0.2-0.2-0.3c-0.1-0.1-0.3-0.1-0.4-0.1
						c-0.2,0-0.3,0-0.4,0.1c-0.1,0.1-0.1,0.1-0.1,0.2c0,0.1,0.1,0.2,0.2,0.2c0.2,0.1,0.4,0.2,0.6,0.2c0.4,0,0.8,0.1,1.1,0.2
						c0.2,0.1,0.4,0.2,0.6,0.4c0.1,0.2,0.2,0.4,0.2,0.6c0,0.2-0.1,0.5-0.2,0.7c-0.2,0.2-0.4,0.4-0.7,0.5c-0.4,0.1-0.8,0.2-1.2,0.2
						c-0.5,0-1.1-0.1-1.5-0.3C61.1,168.9,60.9,168.6,60.8,168.2"/>
					<path id="Trazado_12753" d="M67.6,163.8v1.5h0.8v1.1h-0.8v1.4c0,0.2,0,0.3,0,0.3c0.1,0.1,0.2,0.1,0.3,0.1c0.2,0,0.3,0,0.5-0.1
						l0.1,1.1c-0.3,0.1-0.7,0.1-1.1,0.1c-0.3,0-0.6,0-0.8-0.2c-0.2-0.1-0.3-0.2-0.4-0.4c-0.1-0.3-0.2-0.6-0.2-1v-1.4h-0.6v-1.1h0.6
						v-0.7L67.6,163.8z"/>
					<path id="Trazado_12754" d="M69.2,165.4h1.5v3.9h-1.5V165.4z M69.2,163.8h1.5v1.1h-1.5V163.8z"/>
					<path id="Trazado_12755" d="M73.5,163.8v1.5h0.8v1.1h-0.8v1.4c0,0.2,0,0.3,0,0.3c0.1,0.1,0.2,0.1,0.3,0.1c0.2,0,0.3,0,0.5-0.1
						l0.1,1.1c-0.3,0.1-0.7,0.1-1.1,0.1c-0.3,0-0.6,0-0.8-0.2c-0.2-0.1-0.3-0.2-0.4-0.4c-0.1-0.3-0.2-0.6-0.2-1v-1.4h-0.5v-1.1H72
						v-0.7L73.5,163.8z"/>
					<path id="Trazado_12756" d="M79.3,169.3h-1.4v-0.6c-0.2,0.2-0.4,0.4-0.6,0.6c-0.3,0.1-0.5,0.2-0.8,0.2c-0.4,0-0.7-0.1-1-0.4
						c-0.3-0.3-0.4-0.7-0.4-1.1v-2.5h1.5v2.2c0,0.2,0,0.4,0.2,0.5c0.1,0.1,0.2,0.2,0.4,0.2c0.2,0,0.3-0.1,0.4-0.2
						c0.1-0.2,0.2-0.5,0.2-0.7v-1.9h1.5L79.3,169.3z"/>
					<path id="Trazado_12757" d="M82,163.8v1.5h0.8v1.1H82v1.4c0,0.2,0,0.3,0,0.3c0.1,0.1,0.2,0.1,0.3,0.1c0.2,0,0.3,0,0.5-0.1
						l0.1,1.1c-0.3,0.1-0.7,0.1-1.1,0.1c-0.3,0-0.6,0-0.8-0.2c-0.2-0.1-0.3-0.3-0.4-0.4c-0.1-0.3-0.1-0.7-0.1-1v-1.4h-0.6v-1.1h0.6
						v-0.7L82,163.8z"/>
					<path id="Trazado_12758" d="M84.9,167.3c0,0.3,0,0.6,0.2,0.8c0.1,0.2,0.3,0.3,0.6,0.3c0.2,0,0.4-0.1,0.5-0.3
						c0.2-0.2,0.3-0.5,0.2-0.8c0-0.3-0.1-0.6-0.2-0.8c-0.1-0.2-0.3-0.2-0.5-0.2c-0.2,0-0.4,0.1-0.6,0.2
						C85,166.8,84.9,167,84.9,167.3 M83.4,167.3c0-0.6,0.2-1.1,0.6-1.5c0.5-0.4,1-0.6,1.7-0.6c0.7-0.1,1.3,0.2,1.8,0.7
						c0.3,0.4,0.5,0.9,0.5,1.4c0,0.6-0.2,1.1-0.6,1.5c-0.9,0.8-2.3,0.8-3.2,0.1C83.6,168.5,83.4,167.9,83.4,167.3"/>
					<path id="Trazado_12759" d="M91.3,163.8h1.6l2,3v-3h1.6v5.5H95l-2-3v3h-1.6V163.8z"/>
					<path id="Trazado_12760" d="M100.3,167.4c-0.2,0-0.5,0.1-0.7,0.2c-0.2,0-0.4,0.1-0.6,0.2c-0.2,0.1-0.2,0.4,0,0.5c0,0,0,0,0,0
						c0.1,0.1,0.2,0.1,0.4,0.1c0.2,0,0.3,0,0.5-0.1c0.1-0.1,0.3-0.2,0.3-0.3c0.1-0.1,0.1-0.3,0.1-0.4L100.3,167.4z M99,166.6
						l-1.5-0.2c0.1-0.2,0.1-0.4,0.2-0.6c0.1-0.2,0.3-0.3,0.5-0.4c0.2-0.1,0.4-0.1,0.6-0.2c0.3,0,0.5-0.1,0.8-0.1
						c0.4,0,0.7,0,1.1,0.1c0.3,0.1,0.5,0.2,0.7,0.3c0.1,0.1,0.2,0.3,0.3,0.5c0,0.2,0.1,0.4,0.1,0.6v1.8c0,0.2,0,0.3,0,0.4
						c0,0.1,0.1,0.3,0.2,0.4h-1.4c-0.1-0.1-0.1-0.2-0.1-0.2c0-0.1,0-0.2,0-0.2c-0.2,0.2-0.4,0.3-0.6,0.4c-0.3,0.1-0.6,0.2-0.9,0.2
						c-0.4,0-0.8-0.1-1.1-0.4c-0.3-0.2-0.4-0.5-0.4-0.8c0-0.3,0.1-0.5,0.3-0.7c0.3-0.3,0.6-0.4,1-0.4c0.5-0.1,0.9-0.2,1.1-0.2
						c0.2-0.1,0.4-0.1,0.6-0.2c0-0.1,0-0.3-0.1-0.4c-0.1-0.1-0.3-0.1-0.4-0.1c-0.2,0-0.4,0-0.6,0.1C99.1,166.4,99,166.5,99,166.6"/>
					<path id="Trazado_12761" d="M105.7,167.7l1.4,0.2c-0.1,0.3-0.2,0.6-0.4,0.8c-0.2,0.2-0.4,0.4-0.7,0.5c-0.4,0.1-0.7,0.2-1.1,0.2
						c-0.3,0-0.7,0-1-0.1c-0.3-0.1-0.5-0.2-0.7-0.4c-0.2-0.2-0.4-0.4-0.5-0.6c-0.1-0.3-0.2-0.6-0.2-0.9c0-0.3,0.1-0.7,0.2-1
						c0.1-0.2,0.2-0.4,0.4-0.6c0.2-0.2,0.3-0.3,0.5-0.4c0.4-0.1,0.8-0.2,1.1-0.2c0.5,0,1,0.1,1.5,0.4c0.4,0.2,0.6,0.6,0.7,1
						l-1.4,0.2c0-0.2-0.1-0.3-0.2-0.4c-0.1-0.1-0.3-0.1-0.5-0.1c-0.2,0-0.5,0.1-0.6,0.3c-0.2,0.2-0.3,0.5-0.2,0.8
						c0,0.3,0.1,0.5,0.2,0.7c0.1,0.2,0.4,0.3,0.6,0.3c0.2,0,0.4-0.1,0.5-0.2C105.5,168.1,105.6,167.9,105.7,167.7"/>
					<path id="Trazado_12762" d="M107.9,165.4h1.5v3.9h-1.5V165.4z M107.9,163.8h1.5v1.1h-1.5V163.8z"/>
					<path id="Trazado_12763" d="M111.7,167.3c0,0.3,0.1,0.6,0.2,0.8c0.2,0.3,0.7,0.4,1,0.1c0.1,0,0.1-0.1,0.1-0.1
						c0.1-0.2,0.2-0.5,0.2-0.8c0-0.3-0.1-0.5-0.2-0.8c-0.1-0.2-0.3-0.2-0.6-0.2c-0.2,0-0.4,0.1-0.6,0.2
						C111.7,166.8,111.7,167,111.7,167.3 M110.1,167.3c0-0.6,0.2-1.1,0.6-1.5c0.4-0.4,1-0.6,1.7-0.6c0.7,0,1.3,0.2,1.8,0.7
						c0.4,0.4,0.5,0.9,0.5,1.4c0,0.6-0.2,1.1-0.6,1.5c-0.4,0.4-1,0.6-1.7,0.6c-0.6,0-1.1-0.2-1.6-0.5
						C110.4,168.5,110.1,167.9,110.1,167.3"/>
					<path id="Trazado_12764" d="M115.4,165.3h1.4v0.6c0.2-0.2,0.4-0.4,0.7-0.6c0.2-0.1,0.5-0.2,0.8-0.2c0.4,0,0.7,0.1,1,0.4
						c0.3,0.3,0.4,0.7,0.4,1.1v2.5h-1.5v-2.2c0-0.2,0-0.4-0.1-0.5c-0.1-0.1-0.2-0.2-0.4-0.2c-0.2,0-0.4,0.1-0.5,0.2
						c-0.1,0.2-0.2,0.5-0.2,0.7v1.9h-1.5V165.3z"/>
					<path id="Trazado_12765" d="M123.2,167.4c-0.2,0.1-0.4,0.1-0.7,0.2c-0.2,0-0.4,0.1-0.6,0.2c-0.2,0.1-0.2,0.4,0,0.5c0,0,0,0,0,0
						c0.1,0.1,0.3,0.1,0.4,0.1c0.2,0,0.3,0,0.5-0.1c0.1-0.1,0.2-0.2,0.3-0.3c0.1-0.1,0.1-0.3,0.1-0.4L123.2,167.4z M121.9,166.6
						l-1.5-0.2c0.1-0.2,0.1-0.4,0.2-0.6c0.1-0.2,0.3-0.3,0.5-0.4c0.2-0.1,0.4-0.1,0.6-0.2c0.3,0,0.5-0.1,0.8-0.1
						c0.4,0,0.7,0,1.1,0.1c0.3,0.1,0.5,0.2,0.7,0.3c0.1,0.1,0.2,0.3,0.3,0.5c0.1,0.2,0.1,0.4,0.1,0.6v2.2c0,0.1,0.1,0.3,0.2,0.4
						h-1.4l-0.1-0.2c0-0.1,0-0.2,0-0.2c-0.2,0.2-0.4,0.3-0.6,0.4c-0.3,0.1-0.6,0.2-0.9,0.2c-0.4,0-0.8-0.1-1.1-0.4
						c-0.3-0.2-0.4-0.5-0.4-0.8c0-0.3,0.1-0.5,0.3-0.7c0.3-0.2,0.6-0.4,1-0.4c0.6-0.1,0.9-0.2,1.1-0.2c0.2-0.1,0.4-0.1,0.6-0.2
						c0-0.1,0-0.3-0.1-0.4c-0.1-0.1-0.3-0.1-0.4-0.1c-0.2,0-0.4,0-0.6,0.1C122,166.4,122,166.5,121.9,166.6"/>
					<rect id="Rectángulo_23436" x="125.7" y="163.8" width="1.5" height="5.5"/>
					<path id="Trazado_12766" d="M130.8,163.8h4.5v1.2h-2.8v0.9h2.6v1.1h-2.6v1.1h2.9v1.2h-4.6L130.8,163.8z"/>
					<rect id="Rectángulo_23437" x="136.3" y="163.8" width="1.5" height="5.5"/>
					<path id="Trazado_12767" d="M141.6,167c0-0.2-0.1-0.4-0.2-0.6c-0.3-0.3-0.8-0.3-1,0c0,0,0,0.1-0.1,0.1
						c-0.1,0.1-0.2,0.3-0.2,0.5L141.6,167z M143.2,167.7h-3c0,0.2,0.1,0.4,0.2,0.5c0.1,0.2,0.3,0.3,0.6,0.3c0.2,0,0.3,0,0.4-0.1
						c0.1-0.1,0.2-0.1,0.3-0.2l1.5,0.1c-0.2,0.4-0.5,0.7-0.8,0.9c-0.4,0.2-0.9,0.3-1.4,0.3c-0.4,0-0.9-0.1-1.3-0.2
						c-0.3-0.2-0.6-0.4-0.7-0.7c-0.2-0.3-0.3-0.7-0.3-1.1c0-0.6,0.2-1.1,0.6-1.5c0.4-0.4,1-0.6,1.6-0.6c0.5,0,0.9,0.1,1.4,0.3
						c0.3,0.2,0.6,0.4,0.7,0.7c0.2,0.4,0.3,0.8,0.2,1.3L143.2,167.7z"/>
					<path id="Trazado_12768" d="M146.8,167.7l1.5,0.2c-0.1,0.3-0.2,0.5-0.4,0.8c-0.2,0.2-0.4,0.4-0.7,0.5c-0.3,0.1-0.7,0.2-1.1,0.2
						c-0.4,0-0.7,0-1.1-0.1c-0.3-0.1-0.5-0.2-0.7-0.4c-0.2-0.2-0.4-0.4-0.5-0.6c-0.1-0.3-0.2-0.6-0.2-0.9c0-0.3,0.1-0.7,0.2-1
						c0.1-0.2,0.2-0.4,0.4-0.6c0.2-0.1,0.4-0.3,0.6-0.4c0.4-0.1,0.8-0.2,1.1-0.2c0.5,0,1,0.1,1.5,0.4c0.3,0.3,0.6,0.6,0.7,1
						l-1.5,0.2c0-0.2-0.1-0.3-0.2-0.4c-0.1-0.1-0.3-0.1-0.5-0.1c-0.2,0-0.4,0.1-0.6,0.3c-0.2,0.2-0.3,0.5-0.2,0.8
						c0,0.3,0.1,0.5,0.2,0.7c0.1,0.2,0.4,0.3,0.6,0.3c0.2,0,0.3-0.1,0.5-0.2C146.7,168.1,146.8,167.9,146.8,167.7"/>
					<path id="Trazado_12769" d="M150.8,163.8v1.5h0.8v1.1h-0.8v1.4c0,0.1,0,0.2,0,0.3c0.1,0.1,0.2,0.1,0.3,0.1c0.2,0,0.3,0,0.5-0.1
						l0.1,1.1c-0.3,0.1-0.7,0.1-1.1,0.1c-0.3,0-0.6,0-0.8-0.2c-0.2-0.1-0.3-0.2-0.4-0.4c-0.1-0.3-0.2-0.6-0.2-1v-1.4h-0.6v-1.1h0.6
						v-0.7L150.8,163.8z"/>
					<path id="Trazado_12770" d="M153.7,167.3c0,0.3,0.1,0.6,0.2,0.8c0.2,0.3,0.7,0.4,1,0.1c0.1,0,0.1-0.1,0.1-0.1
						c0.1-0.2,0.2-0.5,0.2-0.8c0-0.3-0.1-0.5-0.2-0.8c-0.1-0.2-0.3-0.2-0.6-0.2c-0.2,0-0.4,0.1-0.6,0.2
						C153.8,166.8,153.7,167,153.7,167.3 M152.2,167.3c0-0.6,0.2-1.1,0.6-1.5c0.4-0.4,1-0.6,1.7-0.6c0.7,0,1.3,0.2,1.8,0.7
						c0.4,0.4,0.5,0.9,0.5,1.4c0,0.6-0.2,1.1-0.6,1.5c-0.4,0.4-1,0.6-1.7,0.6c-0.6,0-1.1-0.2-1.6-0.5
						C152.4,168.5,152.1,167.9,152.2,167.3"/>
					<path id="Trazado_12771" d="M157.5,165.3h1.4v0.6c0.1-0.2,0.2-0.4,0.4-0.6c0.2-0.1,0.3-0.2,0.5-0.2c0.3,0,0.5,0.1,0.7,0.2
						l-0.5,1.1c-0.1-0.1-0.3-0.1-0.4-0.1c-0.2,0-0.4,0.1-0.4,0.3c-0.2,0.4-0.3,0.9-0.2,1.3v1.3h-1.5L157.5,165.3z"/>
					<path id="Trazado_12772" d="M163.7,167.4c-0.2,0-0.5,0.1-0.7,0.2c-0.2,0-0.4,0.1-0.6,0.2c-0.2,0.1-0.2,0.4,0,0.5c0,0,0,0,0,0
						c0.1,0.1,0.2,0.1,0.4,0.1c0.2,0,0.4,0,0.5-0.1c0.1-0.1,0.2-0.2,0.3-0.3c0.1-0.1,0.1-0.3,0.1-0.4L163.7,167.4z M162.4,166.6
						l-1.5-0.2c0.1-0.2,0.1-0.4,0.2-0.6c0.1-0.2,0.3-0.3,0.5-0.4c0.2-0.1,0.4-0.1,0.6-0.2c0.3,0,0.5-0.1,0.8-0.1
						c0.4,0,0.7,0,1.1,0.1c0.3,0.1,0.5,0.2,0.7,0.3c0.1,0.1,0.2,0.3,0.3,0.5c0.1,0.2,0.1,0.4,0.1,0.6v1.8c0,0.2,0,0.3,0,0.4
						c0,0.1,0.1,0.3,0.2,0.4h-1.4c0-0.1-0.1-0.2-0.1-0.2c0-0.1,0-0.2,0-0.2c-0.2,0.2-0.4,0.3-0.6,0.4c-0.3,0.1-0.6,0.2-0.9,0.2
						c-0.4,0-0.8-0.1-1.1-0.4c-0.3-0.2-0.4-0.5-0.4-0.8c0-0.3,0.1-0.5,0.3-0.7c0.3-0.2,0.6-0.4,1-0.4c0.5-0.1,0.9-0.2,1.1-0.2
						c0.2-0.1,0.4-0.1,0.6-0.2c0-0.1,0-0.3-0.1-0.4c-0.1-0.1-0.3-0.1-0.4-0.1c-0.2,0-0.4,0-0.6,0.1
						C162.5,166.4,162.4,166.5,162.4,166.6"/>
					<rect id="Rectángulo_23438" x="166.1" y="163.8" width="1.5" height="5.5"/>
				</g>
			</g>
		</g>
	</g>
</g>
</svg>
