<?xml version="1.0" encoding="utf-8"?>
<svg version="1.1" xmlns="http://www.w3.org/2000/svg" xmlns:xlink="http://www.w3.org/1999/xlink" x="0px"
	 y="0px"
	 viewBox="0 0 407.3 123.6" style="enable-background:new 0 0 407.3 123.6;" xml:space="preserve">
<path d="M3.7,58.8C6.1,54.4,9.6,51,14,48.6c4.3-2.4,9.3-3.6,15-3.6c7.3,0,13.4,2,18.4,6s8.2,9.5,9.6,16.7H35.7
	c-1.2-3.7-3.6-5.6-7.1-5.6c-2.5,0-4.5,1-6,3.1s-2.2,5.1-2.2,9.1s0.7,7.1,2.2,9.2s3.5,3.2,6,3.2c3.6,0,6-1.9,7.1-5.6H57
	c-1.4,7.1-4.6,12.6-9.6,16.6s-11.1,6-18.4,6c-5.6,0-10.7-1.2-15.1-3.6C9.5,97.8,6.1,94.4,3.7,90C1.2,85.5,0,80.3,0,74.3
	C0,68.4,1.2,63.3,3.7,58.8z"/>
	<path d="M117.5,78.4H79.7c0.2,3.1,1.1,5.5,2.6,7s3.5,2.3,5.9,2.3c3.3,0,5.7-1.5,7.1-4.5h21.3c-0.9,3.9-2.6,7.5-5.2,10.6
	s-5.8,5.5-9.6,7.3s-8.2,2.7-12.9,2.7c-5.6,0-10.7-1.2-15.1-3.6S66,94.4,63.5,90c-2.5-4.4-3.7-9.6-3.7-15.6s1.2-11.2,3.7-15.6
	c2.4-4.4,5.9-7.8,10.3-10.2C78.2,46.2,83.2,45,89,45c5.6,0,10.6,1.2,15,3.5s7.8,5.6,10.2,10c2.4,4.3,3.7,9.4,3.7,15.3
	C117.8,75.3,117.7,76.9,117.5,78.4z M97.4,68.7c0-2.4-0.8-4.4-2.4-5.8c-1.6-1.4-3.7-2.1-6.1-2.1s-4.5,0.7-6,2
	c-1.6,1.3-2.6,3.3-3.1,5.9H97.4z"/>
	<path d="M150,48.1c3.2-1.9,6.6-2.9,10.3-2.9v21.3h-5.6c-4.4,0-7.6,0.9-9.7,2.6c-2.1,1.7-3.2,4.7-3.2,8.9v25h-20V45.8h20
	v10.1C144.1,52.6,146.8,50,150,48.1z"/>
	<path d="M201.2,86v17h-8.7c-14.6,0-21.9-7.2-21.9-21.7V62.4h-7V45.8h7V31.9h20.1v13.9h10.4v16.6h-10.4v19.2
	c0,1.6,0.4,2.7,1.1,3.4c0.7,0.7,1.9,1,3.6,1C195.4,86,201.2,86,201.2,86z"/>
	<rect x="210.4" y="45.8" width="20" height="57.3"/>
	<path d="M272.8,62.4h-9V103h-20.1V62.4h-6.2V45.8h6.2v-0.5c0-7.4,2.2-13,6.5-16.9s10.5-5.9,18.6-5.9
	c1.6,0,2.9,0,3.8,0.1v17c-0.5-0.1-1.3-0.1-2.2-0.1c-2.2,0-3.8,0.5-4.8,1.5s-1.6,2.6-1.7,4.7h9L272.8,62.4L272.8,62.4z"/>
	<g>
	<path d="M401,0H290c-3.5,0-6.3,2.8-6.3,6.3v111c0,3.5,2.8,6.3,6.3,6.3h111c3.5,0,6.3-2.8,6.3-6.3V6.3
		C407.3,2.8,404.5,0,401,0z M345.7,97.7L341.8,86h-25.5l-3.9,11.7h-21l26.2-72h23.1l26.1,72H345.7z M391.2,97.8h-20v-72h20V97.8z"/>
		<polygon points="321.3,70.7 336.8,70.7 329,47.4 	"/>
</g>
	<circle cx="220.5" cy="29.4" r="11.7"/>
</svg>
